<svg xmlns="http://www.w3.org/2000/svg" viewBox="0 0 63.2 63.2"><defs><style>.cls-1,.cls-2{fill:#fff;stroke:#231f20;stroke-miterlimit:10;}.cls-2{stroke-width:0.5px;}</style></defs><g id="Layer_2" data-name="Layer 2"><g id="Layer_1-2" data-name="Layer 1"><circle class="cls-1" cx="31.6" cy="31.6" r="31.1"/><circle class="cls-1" cx="31.72" cy="15.57" r="8.37"/><rect class="cls-1" x="16.92" y="31.95" width="29.89" height="18.25"/><rect class="cls-1" x="19.49" y="35.63" width="7.88" height="5.44"/><rect class="cls-1" x="29.29" y="37.23" width="7.71" height="12.96"/><circle class="cls-1" cx="35.36" cy="43.24" r="0.16"/><polygon class="cls-1" points="50.26 33.11 13.1 33.11 15.15 23.87 48.42 23.87 50.26 33.11"/><path class="cls-1" d="M15.23,23.76l5,.11L18.94,35.21c-.17.7-2.72.52-3.42.35l-1.4-.35a1.66,1.66,0,0,1-1.22-2Z"/><path class="cls-1" d="M21,24.49l6.16.14L26.54,35.9c-.17.7-3.42.58-4.12.41L21,36a1.66,1.66,0,0,1-1.22-2Z"/><path class="cls-1" d="M27.6,24.31l6.87.15V35.67c-.18.7-4,.64-4.69.47l-1.41-.34a1.66,1.66,0,0,1-1.22-2Z"/><path class="cls-1" d="M35,24.32l7.53.32L43,34.75c-.17.7-3.84,1.74-4.54,1.57h0c-1.69.12-2.81-1.58-3.25-2.65Z"/><path class="cls-1" d="M43,24.13l5.52.24,2.71,10.34c-.17.7-4,1.6-4.74,1.42h0c-1.69.13-2.81-1.57-3.26-2.64Z"/><rect class="cls-1" x="31.91" y="15.04" width="0.71" height="5.83" transform="translate(-4.47 21.7) rotate(-34.92)"/><path class="cls-1" d="M27.91,13.26h3.8a0,0,0,0,1,0,0V14a1.58,1.58,0,0,1-1.58,1.58h-.47a1.74,1.74,0,0,1-1.74-1.74v-.59A0,0,0,0,1,27.91,13.26Z" transform="translate(-2.89 19.66) rotate(-34.92)"/><rect class="cls-2" x="26.66" y="12.44" width="0.3" height="2.1" transform="translate(-2.9 17.77) rotate(-34.92)"/><rect class="cls-2" x="27.59" y="11.79" width="0.3" height="2.1" transform="translate(-2.36 18.19) rotate(-34.92)"/><rect class="cls-2" x="29.81" y="10.24" width="0.3" height="2.1" transform="translate(-1.07 19.18) rotate(-34.92)"/><rect class="cls-2" x="28.83" y="10.95" width="0.3" height="2.1" transform="translate(-1.65 18.75) rotate(-34.92)"/><rect class="cls-1" x="31.27" y="15.04" width="0.71" height="5.83" transform="translate(18.33 -15.89) rotate(38.97)"/><ellipse class="cls-1" cx="35.01" cy="13.79" rx="2.45" ry="1.52" transform="translate(2.27 32.34) rotate(-51.03)"/></g></g></svg>