<svg xmlns="http://www.w3.org/2000/svg" viewBox="0 0 63.2 63.2"><defs><style>.cls-1,.cls-2{fill:#fff;stroke:#231f20;stroke-miterlimit:10;}.cls-2{stroke-width:0.25px;}</style></defs><g id="Layer_2" data-name="Layer 2"><g id="Layer_1-2" data-name="Layer 1"><circle class="cls-1" cx="31.6" cy="31.6" r="31.1"/><rect class="cls-1" x="18.29" y="14.4" width="10.29" height="10.29" rx="4.07"/><rect class="cls-1" x="15.88" y="25.09" width="15.11" height="16.88" rx="4.1"/><rect class="cls-1" x="10.79" y="41.56" width="38.81" height="9.43"/><polygon class="cls-1" points="23.16 31.6 23.16 31.6 19.1 25.46 27.62 25.46 23.16 31.6"/><path class="cls-1" d="M31.7,16.76v-5.1a.53.53,0,0,1,.53-.53H46a.53.53,0,0,1,.53.53v6.39a.52.52,0,0,1-.53.52H37.48a.47.47,0,0,0-.17,0l-6.6,2.25a.52.52,0,0,1-.64-.72Z"/><line class="cls-2" x1="40.89" y1="13.22" x2="35.38" y2="13.22"/><line class="cls-2" x1="42.29" y1="14.4" x2="35.44" y2="14.4"/><line class="cls-2" x1="43.61" y1="15.58" x2="35.44" y2="15.58"/></g></g></svg>