<svg xmlns="http://www.w3.org/2000/svg" viewBox="0 0 63.2 63.2"><defs><style>.cls-1,.cls-2{fill:#fff;stroke:#231f20;stroke-miterlimit:10;}.cls-2{stroke-width:0.25px;}</style></defs><g id="Layer_2" data-name="Layer 2"><g id="Layer_1-2" data-name="Layer 1"><circle class="cls-1" cx="31.6" cy="31.6" r="31.1"/><rect class="cls-1" x="25.26" y="13.6" width="10.29" height="10.29" rx="4.07"/><rect class="cls-1" x="22.85" y="24.29" width="15.11" height="16.88" rx="4.1"/><rect class="cls-1" x="10.79" y="41.56" width="38.81" height="9.43"/><polygon class="cls-1" points="30.13 30.8 30.13 30.8 26.08 24.65 34.59 24.65 30.13 30.8"/><path class="cls-1" d="M38.53,16.33v-5.1a.49.49,0,0,1,.45-.52H50.75a.49.49,0,0,1,.46.52v6.39a.5.5,0,0,1-.46.53H43.47l-.14,0-5.65,2.26c-.38.15-.72-.31-.55-.73Z"/><line class="cls-2" x1="45.9" y1="13.41" x2="41.27" y2="13.41"/><line class="cls-2" x1="47.06" y1="14.4" x2="41.32" y2="14.4"/><line class="cls-2" x1="48.18" y1="15.39" x2="41.32" y2="15.39"/></g></g></svg>