<svg xmlns="http://www.w3.org/2000/svg" viewBox="0 0 63.2 63.2"><defs><style>.cls-1{fill:#fff;stroke:#231f20;stroke-miterlimit:10;}</style></defs><g id="Layer_2" data-name="Layer 2"><g id="Layer_1-2" data-name="Layer 1"><circle class="cls-1" cx="31.6" cy="31.6" r="31.1"/><path class="cls-1" d="M40.55,38.89,37,33.69a4.56,4.56,0,0,1-.6-1.21L34.3,26.21a2,2,0,0,1,.6-2.1l3.58-3a1.17,1.17,0,0,0,.15-1.64l-.48-.59a1.48,1.48,0,0,0-2-.24L28,24.75a1.71,1.71,0,0,0-.46,2.2l1.15,2a1,1,0,0,1-.37,1.3L16.27,36.82a1.16,1.16,0,0,0-.14,1.94c2.71,2.07,4.68,2.31,6.05,2.06s2.14-1.06,4.81-2.15a26.34,26.34,0,0,1,5-1.5,3.81,3.81,0,0,1,1.88,1.77c.46,1,.07,1.69.52,2,.63.45,1.75-.64,4.33-1.53A18.9,18.9,0,0,1,40.55,38.89Z"/><path class="cls-1" d="M2.81,42.84,5.29,41S11.4,36,14.78,37.63c1.57.74,3,3,5.93,3.19,4.77.36,5.22-2.55,10.23-3.12,4.78-.54.83,5.13,5.65,2.74C49,34.29,48.94,45,57.12,38.37a1.19,1.19,0,0,1,1.37-.11l2.71,1.29"/><circle class="cls-1" cx="40.61" cy="30.98" r="4.02"/></g></g></svg>