<?xml version="1.0" encoding="utf-8"?>
<!-- Generated by IcoMoon.io -->
<!DOCTYPE svg PUBLIC "-//W3C//DTD SVG 1.1//EN" "http://www.w3.org/Graphics/SVG/1.1/DTD/svg11.dtd">
<svg version="1.1" xmlns="http://www.w3.org/2000/svg" xmlns:xlink="http://www.w3.org/1999/xlink" width="512" height="512" viewBox="0 0 512 512">
<g>
</g>
	<path d="M7029.965 37002.681c0 15.394-12.48 27.874-27.873 27.874-15.394 0-27.873-12.48-27.873-27.874 0-15.394 12.48-27.874 27.873-27.874 15.394 0 27.873 12.48 27.873 27.874z" fill="#000000" />
	<path d="M6832.282 37085.624l-1.218 0.215-1.177 0.563z" fill="#000000" />
	<path d="M6870.681 37069.957l-0.051-0.502c-0.113-0.942-0.072-1.863-0.041-2.775l-39.526 19.149 1.218-0.215-2.386 0.778 1.167-0.563-20.89 3.645 30.966 5.56 34.498-12.165-4.792-12.462-0.164-0.45z" fill="#000000" />
	<path d="M6844.068 37101.056l-2.233-0.399-2.099 0.707z" fill="#000000" />
	<path d="M6877.44 37088.921l-35.605 11.735 2.233 0.399-4.332 0.297 2.099-0.696-72.212-12.861-2.663 1.382-26.276 23.327 29.757-6.533-0.973-0.185 5.611-0.84-4.639 1.024 72.704 12.944 2.15-0.696 47.626-15.719c-3.123-0.717-6.073-2.038-8.663-4.065-3.175-2.519-5.448-5.817-6.82-9.513z" fill="#000000" />
	<path d="M6769.48 37105.797l0.973 0.185 4.639-1.024z" fill="#000000" />
	<path d="M6878.535 37067.366c0 0.297-0.113 0.573-0.092 0.912l4.598 11.981 1.813-0.645-6.318-12.247z" fill="#000000" />
	<path d="M6885.079 37086.402c0.87 2.253 2.119 4.321 4.065 5.857 2.898 2.304 6.502 3.318 10.168 2.898 0 0 2.498-0.297 6.38-0.738l-4.403-13.363-16.21 5.346z" fill="#000000" />
	<path d="M6997.391 37038.622h-0.092l0.020 0.082z" fill="#000000" />
	<path d="M6876.16 37083.904c0.041 0.256 0.133 0.522 0.174 0.778l0.072 0.185-0.246-0.963z" fill="#000000" />
	<path d="M6978.887 37030.635l0.123 0.020 0.409-0.103z" fill="#000000" />
	<path d="M6878.434 37068.575c-0.020-0.113 0.020-0.215 0.020-0.287l-0.246-0.676 0.225 0.963z" fill="#000000" />
	<path d="M7061.985 37029.868l-63.815 12.585-24.167 5.264c5.427 6.082 18.473 16.589 31.181 29.122l60.877-32.082 184.709 7.004 2.078-11.315-190.864-10.578z" fill="#000000" />
	<path d="M7081.626 37082.696l-6.451-4.188-5.52 5.468z" fill="#000000" />
	<path d="M7102.331 37051.556l-27.157 26.952 6.451 4.188-11.971 1.28 5.52-5.468-27.648-17.838-19.671 10.086 49.89 32.226 5.499-5.478 43.12-44.964z" fill="#000000" />
	<path d="M7029.637 37089.065l-5.673-4.649-6.492 5.223z" fill="#000000" />
	<path d="M7066.736 37050.204l-42.773 34.212 5.673 4.649-12.165 0.573 6.492-5.223-8.766-7.137-10.834 5.56-3.4-2.704-34.97-33.26-8.468 11.796 66.959 50.463 5.878-5.315 58.675-52.9z" fill="#000000" />
	<path d="M6970.43 37040.702l-3.789 5.274 7.711-2.079z" fill="#000000" />
	<path d="M6965.412 37046.302l0.583 0.573 0.645-0.901z" fill="#000000" />
	<path d="M6966.641 37045.975l7.711-2.079c0 0 16.773-3.881 18.821-4.423-2.222-5.683-7.824-9.503-14.162-8.817l-88.412 22.518c-7.178 0.84-12.267 7.096-12.052 14.192l6.318 12.247-1.813 0.645 0.686 1.792 0.185 0.45 0.051 0.502c0.133 1.198 0.666 2.304 1.106 3.399l16.22-5.335 4.403 13.363c19.763-2.304 79.544-9.277 79.565-9.277 2.058-0.215 3.953-1.116 5.703-2.283l-12.913-24.535-12.052-11.448 0.635-0.912z" fill="#000000" />
	<path d="M257.209 257.772l39.035-72.673-14.315 6.625 100.291 21.34 5.478-25.713-109.926-23.388-4.69 8.694-48.476 89.661z" fill="#000000" />
	<path d="M352.379 241.705c0 19.395-15.749 35.123-35.164 35.123-19.385 0-35.134-15.728-35.134-35.123 0-19.405 15.749-35.144 35.134-35.144 19.415 0.010 35.164 15.739 35.164 35.144z" fill="#000000" />
	<path d="M262.738 260.075l6.185-4.782 5.776 5.232 8.253 7.454c-3.676-15.463-17.531-25.529-31.242-22.487l-71.403 15.718 36.301 34.652 46.131-35.789z" fill="#000000" />
	<path d="M239.493 301.701c13.496 0.574 24.801 0.942 24.801 0.942 6.861-1.505 12.39-6.021 15.79-12.103l-12.094-10.947-28.498 22.108z" fill="#000000" />
	<path d="M157.666 289.28c0.030 2.222 0.226 4.475 0.727 6.748 7.127-9.923 23.921-2.058 32.922 1.444l-22.006-20.992-11.643 12.8z" fill="#000000" />
	<path d="M14.018 290.314c3.655 10.005 11.489 23.070 26.624 46.827l6.922 10.896 8.151-10.035c13.844-17.050 35.297-44.923 35.513-45.209l-13.793 1.065 50.821 48.374 6.4-7.055 42.875-47.145-13.343 0.481 52.941 50.544 58.829-45.63-11.93-0.45 50.903 46.039 6.195-4.987 50.361-40.735-12.432-0.645 46.93 46.909 6.543-5.827 47.125-41.789-13.189-0.819 37.509 42.844 13.998-12.257-43.694-49.91-6.994 6.216-47.125 41.779 12.759 0.368-46.663-46.633-6.512 5.284-50.35 40.714 12.103 0.338-50.78-45.957-6.185 4.782-52.48 40.704 12.144 0.645-54.036-51.61-6.421 7.055-42.864 47.155 13.302-0.502-51.394-48.916-6.308 8.212c-0.205 0.266-21.525 27.945-35.205 44.82l15.073 0.87c-13.752-21.616-21.781-34.908-24.802-43.202l-17.52 6.39z" fill="#000000" />
</svg>
